<?xml version="1.0" encoding="utf-8"?>
<!-- Generator: Adobe Illustrator 16.0.0, SVG Export Plug-In . SVG Version: 6.00 Build 0)  -->
<!DOCTYPE svg PUBLIC "-//W3C//DTD SVG 1.1//EN" "http://www.w3.org/Graphics/SVG/1.1/DTD/svg11.dtd">
<svg version="1.1" id="Layer_1" xmlns="http://www.w3.org/2000/svg" xmlns:xlink="http://www.w3.org/1999/xlink" x="0px" y="0px"
	 width="401.594px" height="250px" viewBox="0 0 401.594 250" enable-background="new 0 0 401.594 250" xml:space="preserve">
<g id="Layer_2">
	<path fill="none" stroke="#000000" stroke-width="2" stroke-miterlimit="10" d="M201.235,212.732"/>
	<path fill="none" stroke="#000000" stroke-width="2" stroke-miterlimit="10" d="M355.029,125"/>
	<path fill="none" stroke="#000000" stroke-width="2" stroke-miterlimit="10" d="M201.235,212.732"/>
	<path fill="none" stroke="#000000" stroke-width="2" stroke-miterlimit="10" d="M277.893,125"/>
	<path fill="none" stroke="#000000" stroke-width="2" stroke-miterlimit="10" d="M201.235,212.732"/>
	<path fill="none" stroke="#000000" stroke-width="2" stroke-miterlimit="10" d="M123.681,125"/>
	<path fill="none" stroke="#000000" stroke-width="2" stroke-miterlimit="10" d="M201.235,212.732"/>
	<path fill="none" stroke="#000000" stroke-width="2" stroke-miterlimit="10" d="M46.564,125"/>
	<path fill="none" stroke="#000000" stroke-width="2" stroke-miterlimit="10" d="M355.029,125"/>
	<path fill="none" stroke="#000000" stroke-width="2" stroke-miterlimit="10" d="M162.678,37.267"/>
	<path fill="none" stroke="#000000" stroke-width="2" stroke-miterlimit="10" d="M277.893,125"/>
	<path fill="none" stroke="#000000" stroke-width="2" stroke-miterlimit="10" d="M162.678,37.267"/>
	<path fill="none" stroke="#000000" stroke-width="2" stroke-miterlimit="10" d="M200.797,125"/>
	<path fill="none" stroke="#000000" stroke-width="2" stroke-miterlimit="10" d="M162.678,37.267"/>
	<path fill="none" stroke="#000000" stroke-width="2" stroke-miterlimit="10" d="M123.681,125"/>
	<path fill="none" stroke="#000000" stroke-width="2" stroke-miterlimit="10" d="M162.678,37.267"/>
	<path fill="none" stroke="#000000" stroke-width="2" stroke-miterlimit="10" d="M46.564,125"/>
	<path fill="none" stroke="#000000" stroke-width="2" stroke-miterlimit="10" d="M162.678,37.267"/>
	<path fill="none" stroke="#000000" stroke-width="2" stroke-miterlimit="10" d="M123.681,125"/>
	<path fill="none" stroke="#000000" stroke-width="2" stroke-miterlimit="10" d="M239.794,38.729"/>
	<path fill="none" stroke="#000000" stroke-width="2" stroke-miterlimit="10" d="M46.564,125"/>
	<path fill="none" stroke="#000000" stroke-width="2" stroke-miterlimit="10" d="M239.794,37.267"/>
	<path fill="none" stroke="#000000" stroke-width="2" stroke-miterlimit="10" d="M277.893,125"/>
	<path fill="none" stroke="#000000" stroke-width="2" stroke-miterlimit="10" d="M239.794,37.267"/>
	<path fill="none" stroke="#000000" stroke-width="2" stroke-miterlimit="10" d="M355.029,125"/>
	<path fill="none" stroke="#000000" stroke-width="2" stroke-miterlimit="10" d="M239.794,37.267"/>
	<line fill="none" stroke="#108CF5" stroke-width="5" stroke-miterlimit="10" x1="200.797" y1="125" x2="201.235" y2="212.732"/>
	<line fill="none" stroke="#108CF5" stroke-width="5" stroke-miterlimit="10" x1="239.794" y1="37.267" x2="200.797" y2="125"/>
</g>
<g id="Layer_1_1_">
	<g>
		<path fill="#EBE967" d="M200.797,143.934c-10.44,0-18.933-8.492-18.933-18.934c0-10.44,8.493-18.933,18.933-18.933
			c10.439,0,18.934,8.493,18.934,18.933C219.73,135.439,211.236,143.934,200.797,143.934z"/>
		<g>
			<path fill="#F7D317" d="M200.797,109.067c8.786,0,15.934,7.147,15.934,15.933s-7.146,15.934-15.934,15.934
				c-8.786,0-15.933-7.146-15.933-15.934C184.864,116.214,192.011,109.067,200.797,109.067 M200.797,103.067
				c-12.113,0-21.933,9.82-21.933,21.933c0,12.113,9.82,21.934,21.933,21.934c12.113,0,21.934-9.818,21.934-21.934
				C222.73,112.887,212.91,103.067,200.797,103.067L200.797,103.067z"/>
		</g>
	</g>
	<g>
		<path fill="#EBE967" d="M239.794,56.2c-10.44,0-18.935-8.494-18.935-18.934s8.494-18.933,18.935-18.933
			c10.438,0,18.933,8.493,18.933,18.933S250.232,56.2,239.794,56.2z"/>
		<g>
			<path fill="#F7D317" d="M239.794,21.333c8.785,0,15.933,7.147,15.933,15.933c0,8.786-7.146,15.934-15.933,15.934
				s-15.935-7.148-15.935-15.934C223.859,28.48,231.008,21.333,239.794,21.333 M239.794,15.333c-12.112,0-21.935,9.82-21.935,21.933
				c0,12.113,9.82,21.934,21.935,21.934c12.112,0,21.933-9.82,21.933-21.934C261.727,25.154,251.906,15.333,239.794,15.333
				L239.794,15.333z"/>
		</g>
	</g>
	<g>
		<path fill="#EBE967" d="M201.235,231.666c-10.44,0-18.933-8.493-18.933-18.934c0-10.439,8.493-18.935,18.933-18.935
			s18.934,8.493,18.934,18.935C220.169,223.173,211.676,231.666,201.235,231.666z"/>
		<g>
			<path fill="#F7D317" d="M201.235,196.8c8.787,0,15.934,7.147,15.934,15.935c0,8.785-7.147,15.934-15.934,15.934
				c-8.786,0-15.933-7.146-15.933-15.934S192.45,196.8,201.235,196.8 M201.235,190.8c-12.113,0-21.933,9.82-21.933,21.935
				c0,12.113,9.82,21.934,21.933,21.934s21.934-9.818,21.934-21.934C223.169,200.62,213.35,190.8,201.235,190.8L201.235,190.8z"/>
		</g>
	</g>
</g>
</svg>
