<?xml version="1.0" encoding="utf-8"?>
<!-- Generator: Adobe Illustrator 16.0.0, SVG Export Plug-In . SVG Version: 6.00 Build 0)  -->
<!DOCTYPE svg PUBLIC "-//W3C//DTD SVG 1.1//EN" "http://www.w3.org/Graphics/SVG/1.1/DTD/svg11.dtd">
<svg version="1.1" id="Layer_1" xmlns="http://www.w3.org/2000/svg" xmlns:xlink="http://www.w3.org/1999/xlink" x="0px" y="0px"
	 width="401.594px" height="250px" viewBox="0 0 401.594 250" enable-background="new 0 0 401.594 250" xml:space="preserve">
<g id="Layer_2">
	<line fill="none" stroke="#FFFFFF" stroke-miterlimit="10" x1="277.893" y1="125" x2="201.235" y2="212.732"/>
	<line fill="none" stroke="#FFFFFF" stroke-miterlimit="10" x1="200.797" y1="125" x2="201.235" y2="212.732"/>
	<line fill="none" stroke="#FFFFFF" stroke-miterlimit="10" x1="123.681" y1="125" x2="201.235" y2="212.732"/>
	<line fill="none" stroke="#FFFFFF" stroke-miterlimit="10" x1="46.564" y1="125" x2="201.235" y2="212.732"/>
	<line fill="none" stroke="#FFFFFF" stroke-miterlimit="10" x1="162.678" y1="37.267" x2="355.029" y2="125"/>
	<line fill="none" stroke="#FFFFFF" stroke-miterlimit="10" x1="162.678" y1="37.267" x2="277.893" y2="125"/>
	<line fill="none" stroke="#FFFFFF" stroke-miterlimit="10" x1="162.678" y1="37.267" x2="200.797" y2="125"/>
	<line fill="none" stroke="#FFFFFF" stroke-miterlimit="10" x1="162.678" y1="37.267" x2="123.681" y2="125"/>
	<line fill="none" stroke="#FFFFFF" stroke-miterlimit="10" x1="162.678" y1="37.267" x2="46.564" y2="125"/>
	<line fill="none" stroke="#FFFFFF" stroke-miterlimit="10" x1="239.794" y1="38.729" x2="123.681" y2="125"/>
	<line fill="none" stroke="#FFFFFF" stroke-miterlimit="10" x1="239.794" y1="37.267" x2="46.564" y2="125"/>
	<line fill="none" stroke="#FFFFFF" stroke-miterlimit="10" x1="239.794" y1="37.267" x2="200.797" y2="125"/>
	<line fill="none" stroke="#FFFFFF" stroke-miterlimit="10" x1="239.794" y1="37.267" x2="277.893" y2="125"/>
	<line fill="none" stroke="#FFFFFF" stroke-miterlimit="10" x1="355.029" y1="125" x2="201.235" y2="212.732"/>
	<line fill="none" stroke="#FFFFFF" stroke-miterlimit="10" x1="239.794" y1="37.267" x2="355.029" y2="125"/>
</g>
<g id="Layer_1_1_">
	<g>
		<path fill="#BD99BF" d="M200.797,143.934c-10.44,0-18.933-8.492-18.933-18.934c0-10.44,8.493-18.933,18.933-18.933
			c10.439,0,18.934,8.493,18.934,18.933C219.73,135.439,211.236,143.934,200.797,143.934z"/>
		<g>
			<path fill="#D5D7D8" d="M200.797,109.067c8.786,0,15.934,7.147,15.934,15.933s-7.146,15.934-15.934,15.934
				c-8.786,0-15.933-7.146-15.933-15.934C184.864,116.214,192.011,109.067,200.797,109.067 M200.797,103.067
				c-12.113,0-21.933,9.82-21.933,21.933c0,12.113,9.82,21.934,21.933,21.934c12.113,0,21.934-9.816,21.934-21.934
				C222.73,112.887,212.91,103.067,200.797,103.067L200.797,103.067z"/>
		</g>
	</g>
	<g>
		<path fill="#BD99BF" d="M123.681,143.934c-10.44,0-18.933-8.492-18.933-18.934c0-10.44,8.493-18.933,18.933-18.933
			s18.934,8.493,18.934,18.933C142.614,135.439,134.121,143.934,123.681,143.934z"/>
		<g>
			<path fill="#D5D7D8" d="M123.681,109.067c8.786,0,15.934,7.147,15.934,15.933s-7.148,15.934-15.934,15.934
				c-8.786,0-15.933-7.146-15.933-15.934C107.748,116.214,114.895,109.067,123.681,109.067 M123.681,103.067
				c-12.113,0-21.933,9.82-21.933,21.933c0,12.113,9.82,21.934,21.933,21.934c12.113,0,21.934-9.816,21.934-21.934
				C145.614,112.887,135.794,103.067,123.681,103.067L123.681,103.067z"/>
		</g>
	</g>
	<g>
		<path fill="#BD99BF" d="M239.794,56.2c-10.44,0-18.935-8.494-18.935-18.934s8.494-18.933,18.935-18.933
			c10.438,0,18.933,8.493,18.933,18.933S250.232,56.2,239.794,56.2z"/>
		<g>
			<path fill="#D5D7D8" d="M239.794,21.333c8.785,0,15.933,7.147,15.933,15.933c0,8.786-7.146,15.934-15.933,15.934
				s-15.935-7.148-15.935-15.934C223.859,28.48,231.008,21.333,239.794,21.333 M239.794,15.333c-12.112,0-21.935,9.82-21.935,21.933
				c0,12.113,9.82,21.934,21.935,21.934c12.112,0,21.933-9.82,21.933-21.934C261.727,25.154,251.906,15.333,239.794,15.333
				L239.794,15.333z"/>
		</g>
	</g>
	<g>
		<path fill="#BD99BF" d="M162.678,56.2c-10.44,0-18.934-8.494-18.934-18.934s8.494-18.933,18.934-18.933
			c10.44,0,18.933,8.493,18.933,18.933S173.118,56.2,162.678,56.2z"/>
		<g>
			<path fill="#D5D7D8" d="M162.678,21.333c8.786,0,15.933,7.147,15.933,15.933c0,8.786-7.148,15.934-15.933,15.934
				c-8.785,0-15.934-7.148-15.934-15.934C146.744,28.48,153.892,21.333,162.678,21.333 M162.678,15.333
				c-12.113,0-21.934,9.82-21.934,21.933c0,12.113,9.82,21.934,21.934,21.934c12.113,0,21.933-9.82,21.933-21.934
				C184.611,25.154,174.791,15.333,162.678,15.333L162.678,15.333z"/>
		</g>
	</g>
	<g>
		<path fill="#BD99BF" d="M201.235,231.666c-10.44,0-18.933-8.493-18.933-18.934c0-10.439,8.493-18.937,18.933-18.937
			s18.934,8.493,18.934,18.937C220.169,223.173,211.676,231.666,201.235,231.666z"/>
		<g>
			<path fill="#D5D7D8" d="M201.235,196.8c8.787,0,15.934,7.147,15.934,15.935c0,8.785-7.147,15.936-15.934,15.936
				c-8.786,0-15.933-7.146-15.933-15.936C185.302,203.947,192.45,196.8,201.235,196.8 M201.235,190.8
				c-12.113,0-21.933,9.82-21.933,21.935c0,12.113,9.82,21.936,21.933,21.936s21.934-9.816,21.934-21.936
				C223.169,200.62,213.35,190.8,201.235,190.8L201.235,190.8z"/>
		</g>
	</g>
	<g>
		<path fill="#BD99BF" d="M277.893,143.934c-10.438,0-18.934-8.492-18.934-18.934c0-10.44,8.493-18.933,18.934-18.933
			c10.441,0,18.938,8.493,18.938,18.933C296.826,135.439,288.333,143.934,277.893,143.934z"/>
		<g>
			<path fill="#D5D7D8" d="M277.893,109.067c8.787,0,15.938,7.147,15.938,15.933s-7.146,15.934-15.938,15.934
				c-8.787,0-15.934-7.146-15.934-15.934C261.959,116.214,269.105,109.067,277.893,109.067 M277.893,103.067
				c-12.113,0-21.934,9.82-21.934,21.933c0,12.113,9.82,21.934,21.934,21.934c12.114,0,21.938-9.816,21.938-21.934
				C299.826,112.887,290.006,103.067,277.893,103.067L277.893,103.067z"/>
		</g>
	</g>
	<g>
		<path fill="#BD99BF" d="M46.564,143.934c-10.44,0-18.933-8.492-18.933-18.934c0-10.44,8.493-18.933,18.933-18.933
			S65.498,114.56,65.498,125C65.498,135.439,57.004,143.934,46.564,143.934z"/>
		<g>
			<path fill="#D5D7D8" d="M46.564,109.067c8.786,0,15.934,7.147,15.934,15.933s-7.148,15.934-15.934,15.934
				S30.631,133.786,30.631,125S37.779,109.067,46.564,109.067 M46.564,103.067c-12.113,0-21.933,9.82-21.933,21.933
				c0,12.113,9.82,21.934,21.933,21.934S68.498,137.114,68.498,125C68.498,112.887,58.678,103.067,46.564,103.067L46.564,103.067z"
				/>
		</g>
	</g>
	<g>
		<path fill="#BD99BF" d="M355.029,143.934c-10.44,0-18.938-8.492-18.938-18.934c0-10.44,8.493-18.933,18.938-18.933
			c10.438,0,18.934,8.493,18.934,18.933C373.963,135.439,365.47,143.934,355.029,143.934z"/>
		<g>
			<path fill="#D5D7D8" d="M355.029,109.067c8.786,0,15.934,7.147,15.934,15.933s-7.146,15.934-15.934,15.934
				s-15.938-7.146-15.938-15.934C339.096,116.214,346.243,109.067,355.029,109.067 M355.029,103.067
				c-12.113,0-21.938,9.82-21.938,21.933c0,12.113,9.82,21.934,21.938,21.934c12.11,0,21.934-9.816,21.934-21.934
				C376.963,112.887,367.143,103.067,355.029,103.067L355.029,103.067z"/>
		</g>
	</g>
</g>
</svg>
